# Blender v2.82 (sub 7) OBJ File: ''
# www.blender.org
mtllib Arrow.mtl
o uploads_files_351568_Arrow
v -0.016617 -0.000031 0.002219
v -0.020492 -0.000083 0.003393
v -0.020867 0.000160 -0.001965
v -0.016684 0.000212 -0.003136
v -0.016618 0.001255 0.000068
v -0.020498 0.001863 0.000570
v -0.020871 -0.000892 -0.000013
v -0.016685 -0.001452 -0.000177
v -0.016616 0.001288 0.000127
v -0.016685 -0.001419 -0.000114
v -0.020867 -0.000890 0.000110
v -0.020491 0.001896 0.000372
v -0.016617 0.000055 0.002244
v -0.016684 0.000055 -0.003131
v -0.020866 0.000055 -0.001957
v -0.020492 0.000055 0.003419
v -0.000649 0.000000 -0.000211
v -0.000864 -0.000606 -0.000190
v -0.000864 -0.000606 0.000097
v -0.000649 -0.000000 0.000085
v -0.000864 0.000606 -0.000190
v -0.000864 0.000606 0.000097
v -0.000433 0.000494 -0.000148
v -0.000433 0.000000 -0.000224
v 0.000000 0.000000 -0.000148
v -0.000433 -0.000494 -0.000148
v -0.000433 0.000494 0.000148
v -0.000433 -0.000000 0.000224
v 0.000000 -0.000000 0.000148
v -0.000433 -0.000494 0.000148
v -0.000735 -0.000260 0.000406
v -0.000512 -0.000153 0.000118
v -0.000513 -0.000024 -0.000076
v -0.000735 -0.000024 -0.000499
v -0.000512 0.000153 0.000063
v -0.019759 -0.000028 -0.000494
v -0.019759 -0.000267 0.000414
v -0.020199 -0.000024 -0.000317
v -0.020160 -0.000190 0.000473
v -0.020160 0.000175 0.000431
v -0.019759 0.000256 0.000359
v -0.000735 0.000260 0.000347
vt 0.000000 0.931152
vt 0.133312 0.940432
vt 0.146976 0.995600
vt 0.001472 0.993168
vt 0.000000 0.931152
vt 0.133312 0.940432
vt 0.146976 0.995600
vt 0.001472 0.993168
vt 0.000000 0.931152
vt 0.001472 0.993168
vt 0.146976 0.995600
vt 0.133312 0.940432
vt 0.000000 0.931152
vt 0.001472 0.993168
vt 0.146976 0.995600
vt 0.133312 0.940432
vt 0.008000 0.267200
vt 0.003200 0.294400
vt 0.006400 0.296000
vt 0.011200 0.267200
vt 0.004800 0.238400
vt 0.008000 0.236800
vt 0.014400 0.377600
vt 0.008000 0.401600
vt 0.025600 0.390400
vt 0.024000 0.372800
vt 0.003200 0.361600
vt 0.041600 0.363200
vt 0.022400 0.355200
vt 0.024000 0.248000
vt 0.008000 0.233600
vt 0.022400 0.251200
vt 0.041600 0.265600
vt 0.022400 0.267200
vt 0.040000 0.268800
vt 0.024000 0.288000
vt 0.041600 0.273600
vt 0.022400 0.284800
vt 0.006400 0.300800
vt 0.986352 0.035616
vt 0.992224 0.027312
vt 0.991248 0.022432
vt 0.984896 0.024384
vt 0.991248 0.017056
vt 0.508800 0.023904
vt 0.508800 0.035616
vt 0.497568 0.022912
vt 0.497568 0.033168
vt 0.494160 0.015104
vt 0.498544 0.013152
vt 0.508800 0.013152
vt 0.498064 0.004848
vt 0.508800 0.001440
vt 0.985376 0.014128
vt 0.986352 0.002896
vt 0.992704 0.009728
vn -0.0002 -0.9990 -0.0452
vn -0.0001 -0.9990 -0.0453
vn 0.0918 -0.2181 0.9716
vn 0.0271 -0.0908 0.9955
vn -0.0421 0.0902 -0.9950
vn -0.0420 0.0902 -0.9950
vn -0.0472 0.0999 -0.9939
vn 0.0000 1.0000 0.0000
vn -0.7732 0.1541 -0.6152
vn -0.0439 -0.5948 -0.8027
vn -0.9521 -0.1594 0.2609
vn -0.8103 -0.1329 0.5707
vn -0.8313 0.0627 -0.5522
vn -0.1439 0.8130 0.5642
vn 0.4339 0.6362 -0.6379
vn 0.0724 0.0140 -0.9973
vn 0.5581 0.3295 -0.7616
vn 0.4862 -0.7509 -0.4469
vn 0.3366 0.6229 0.7062
vn -0.1907 0.0000 0.9817
vn 0.5026 -0.1621 0.8492
vn 0.2633 -0.6594 0.7041
vn -0.1463 0.9661 -0.2129
vn -0.6656 0.3145 -0.6768
vn -0.6089 0.5609 0.5610
vn -0.2118 -0.2004 0.9565
vn -0.3660 -0.7780 0.5106
vn 0.1964 0.0190 0.9803
vn 0.0379 0.7689 -0.6383
vn 0.7766 0.4825 0.4051
vn 0.4183 0.2512 -0.8729
vn 0.5959 -0.7780 -0.1990
vn 0.0245 -0.8640 -0.5029
vn -0.3633 -0.4398 -0.8213
usemtl Arrow
s off
f 1/1/1 2/2/1 3/3/1
f 3/3/2 4/4/2 1/1/2
f 5/5/3 6/6/3 7/7/3
f 7/7/4 8/8/4 5/5/4
f 9/9/5 10/10/6 11/11/5
f 11/11/7 12/12/7 9/9/7
f 13/13/8 14/14/8 15/15/8
f 16/16/8 13/13/8 15/15/8
s 1
f 17/17/9 18/18/10 19/19/11
f 20/20/12 17/17/9 19/19/11
f 21/21/13 17/17/9 20/20/12
f 20/20/12 22/22/14 21/21/13
f 17/23/9 21/24/13 23/25/15
f 24/26/16 17/23/9 23/25/15
f 18/27/10 17/23/9 24/26/16
f 23/25/15 25/28/17 24/26/16
f 24/26/16 25/28/17 26/29/18
f 24/26/16 26/29/18 18/27/10
f 23/30/15 21/31/13 22/22/14
f 22/22/14 27/32/19 23/30/15
f 25/33/17 23/30/15 27/32/19
f 27/32/19 22/22/14 20/20/12
f 20/20/12 28/34/20 27/32/19
f 27/32/19 28/34/20 29/35/21
f 27/32/19 29/35/21 25/33/17
f 26/36/18 25/37/17 29/35/21
f 29/35/21 30/38/22 26/36/18
f 28/34/20 30/38/22 29/35/21
f 30/38/22 28/34/20 20/20/12
f 18/39/10 26/36/18 30/38/22
f 30/38/22 19/19/11 18/39/10
f 20/20/12 19/19/11 30/38/22
f 31/40/23 32/41/24 33/42/25
f 33/42/25 34/43/26 31/40/23
f 34/43/26 33/42/25 35/44/27
f 31/40/23 34/43/26 36/45/28
f 36/45/28 37/46/29 31/40/23
f 38/47/30 39/48/31 37/46/29
f 37/46/29 36/45/28 38/47/30
f 39/49/31 38/47/30 40/50/32
f 40/50/32 38/47/30 36/45/28
f 36/45/28 41/51/33 40/50/32
f 39/52/31 40/50/32 41/51/33
f 41/51/33 36/45/28 34/43/26
f 41/51/33 37/53/29 39/52/31
f 37/53/29 41/51/33 42/54/34
f 34/43/26 42/54/34 41/51/33
f 42/54/34 31/55/23 37/53/29
f 35/44/27 42/54/34 34/43/26
f 32/56/24 31/55/23 42/54/34
f 42/54/34 35/44/27 32/56/24
